/* XPM */
static char * title_inactive_upper_xpm[] = {
"19 3 20 1",
" 	c #7B9CE1",
".	c #7B9DE2",
"+	c #7B9CE2",
"@	c #7B9BE1",
"#	c #7B9BE2",
"$	c #7B9AE1",
"%	c #7A9AE1",
"&	c #7A99E0",
"*	c #7A9AE0",
"=	c #7A99DF",
"-	c #7999DF",
";	c #7999DE",
">	c #799ADF",
",	c #7998DF",
"'	c #7998DE",
")	c #7997DE",
"!	c #7996DE",
"~	c #7997DF",
"{	c #7996DF",
"]	c #7895DE",
" . +@@@@@#$$$$$$$$%",
"&*&&=--;->;;;-;,,')",
"!~!{!!!!!{!!!!!!!!]"};
