/* XPM */
static char * active_title_lower_xpm[] = {
"19 15 39 1",
" 	c #0056EA",
".	c #0055E9",
"+	c #0055EA",
"@	c #0056EB",
"#	c #0058EE",
"$	c #005AF2",
"%	c #005BF2",
"&	c #005BF3",
"*	c #005AF3",
"=	c #015CF5",
"-	c #015DF5",
";	c #005DF5",
">	c #005CF5",
",	c #005EF9",
"'	c #005FF9",
")	c #0060F9",
"!	c #0162F9",
"~	c #0163F9",
"{	c #0063FA",
"]	c #0062FA",
"^	c #0269FE",
"/	c #0268FE",
"(	c #0267FD",
"_	c #0167FD",
":	c #026AFE",
"<	c #036CFF",
"[	c #026BFE",
"}	c #0265FA",
"|	c #0165FB",
"1	c #0065FC",
"2	c #005FF8",
"3	c #0060FA",
"4	c #004DE3",
"5	c #004CE2",
"6	c #004BE1",
"7	c #004AE0",
"8	c #0144D0",
"9	c #0043CF",
"0	c #0143CF",
"   ..........++++++",
"@@@++++++++++++++++",
"###################",
"$$%%%%%%%%%%%&*****",
"==-;;;;;;;;;;;>>>>>",
",,,''''''''')))))))",
"!!~~~~~~~~~~~{]]]]]",
"^^^^/////////(_____",
":::::::::::::::::::",
"<<<<[[[[[[[[[::::::",
"^^^::::::::::::::::",
"}}}}|||||||||111111",
"2''))333333333)''''",
"4444555555566667777",
"8889999999999900000"};
