/* XPM */
static char * title_inactive_lower_xpm[] = {
"19 15 33 1",
" 	c #7B99E1",
".	c #7B98E1",
"+	c #7B98E0",
"@	c #7B97E0",
"#	c #7B97E1",
"$	c #7B99E2",
"%	c #7D9BE3",
"&	c #7D9CE4",
"*	c #7D9BE4",
"=	c #7F9FE6",
"-	c #7F9EE6",
";	c #7E9EE5",
">	c #7E9DE5",
",	c #7E9EE6",
"'	c #7E9DE6",
")	c #7FA2E6",
"!	c #7FA3E7",
"~	c #7FA2E7",
"{	c #7FA1E7",
"]	c #80A5E7",
"^	c #80A6E8",
"/	c #81A5E7",
"(	c #81A4E7",
"_	c #81A3E7",
":	c #81A7E8",
"<	c #81A8E9",
"[	c #81A7E9",
"}	c #82A9E9",
"|	c #82AAEA",
"1	c #82A9EA",
"2	c #80A5E8",
"3	c #7A93DF",
"4	c #7A93E0",
"  ...++@..@@@####@@",
" $       $ $ $$$$  ",
"%&%%%%%%%*%*%****%%",
"%&%%%%%%%*%*%****%%",
"==---;;>,,>>>''''>>",
")!)))))))!)~)~~~~{{",
"]^]^]]]]]^]]]//(((_",
":<:[:::::[:[:[[<<::",
"}|}1}}}}}1}1}11||}}",
"}|}1}}}}}1}1}11||}}",
":<:[:::::[:[:[[<<::",
"]^]]]]]]]2]2]22^^]]",
">,>>>>>>>'>'>'','>>",
"3433333334343444433",
"3433333334343444433"};
