/* XPM */
static char * top_left_inactive_xpm[] = {
"6 29 34 1",
" 	c #688DE0",
".	c #688DE1",
"+	c #5B68CD",
"@	c #7480DC",
"#	c #98B2E8",
"$	c #98B2E9",
"%	c #7589DE",
"&	c #9BB7EA",
"*	c #9BB8EB",
"=	c #758CDD",
"-	c #8AACE7",
";	c #8AACE8",
">	c #758CDC",
",	c #7EA2E5",
"'	c #7895DD",
")	c #7791DA",
"!	c #7791DB",
"~	c #7792DA",
"{	c #7791DC",
"]	c #7793DC",
"^	c #7993DE",
"/	c #7992DE",
"(	c #7994DE",
"_	c #7A96DF",
":	c #7A96E0",
"<	c #7B99E1",
"[	c #7C9AE2",
"}	c #7E9EE4",
"|	c #7D9FE4",
"1	c #7FA2E5",
"2	c #80A5E6",
"3	c #81A6E6",
"4	c #80A6E7",
"5	c #778EDB",
"     .",
"+@###$",
"+@%&&*",
"+@%=-;",
"+@%=>,",
"+@%=>'",
"+@%=>)",
"+@%=>!",
"+@%=>~",
"+@%=>{",
"+@%=>]",
"+@%=>^",
"+@%=>/",
"+@%=>(",
"+@%=>_",
"+@%=>:",
"+@%=><",
"+@%=>[",
"+@%=>}",
"+@%=>|",
"+@%=>1",
"+@%=>2",
"+@%=>2",
"+@%=>3",
"+@%=>4",
"+@%=>1",
"+@%=><",
"+@%=>5",
"+@%=>5"};
