/* XPM */
static char * top_left_active_xpm[] = {
"6 29 40 1",
" 	c #0059E8",
".	c #0059E9",
"+	c #0058EC",
"@	c #0019CF",
"#	c #3D95FF",
"$	c #0831D9",
"%	c #2B90FF",
"&	c #2A8FFF",
"*	c #0731D8",
"=	c #1254E7",
"-	c #0271FE",
";	c #0472FE",
">	c #1354E7",
",	c #166AEE",
"'	c #0366F2",
")	c #0934DA",
"!	c #1255E7",
"~	c #005CEA",
"{	c #0057E6",
"]	c #0055E4",
"^	c #0054E3",
"/	c #0053E3",
"(	c #0054E5",
"_	c #0053E5",
":	c #0054E6",
"<	c #0055E7",
"[	c #0056EA",
"}	c #0056EB",
"|	c #0058EE",
"1	c #005AF2",
"2	c #015CF5",
"3	c #005EF9",
"4	c #0162F9",
"5	c #0269FE",
"6	c #026AFE",
"7	c #036CFF",
"8	c #0265FA",
"9	c #005FF8",
"0	c #004DE3",
"a	c #0144D0",
"  . ++",
"@#####",
"@$%%&&",
"@*=-;;",
"@*>,''",
"@)!,~~",
"@$=,{{",
"@*>,]]",
"@*!,^^",
"@)=,//",
"@$=,((",
"@*!,__",
"@)=,::",
"@$=,<<",
"@*!,[[",
"@)=,}}",
"@$=,||",
"@*!,11",
"@)=,22",
"@$=,33",
"@*>,44",
"@*!,55",
"@)=,66",
"@$=,77",
"@*!,55",
"@)=,88",
"@*!,99",
"@)=,00",
"@$=,aa"};
