/* XPM */
static char * border_left_active_xpm[] = {
"1 24 22 1",
" 	c #005CE8",
".	c #0056E4",
"+	c #0055E1",
"@	c #0053DD",
"#	c #0058DF",
"$	c #0054E3",
"%	c #0054E5",
"&	c #0055E5",
"*	c #0058E8",
"=	c #0057EB",
"-	c #005BEC",
";	c #005EF2",
">	c #005EF3",
",	c #0160F6",
"'	c #0165FA",
")	c #0267FB",
"!	c #0268FC",
"~	c #0166FB",
"{	c #0162F7",
"]	c #005DF3",
"^	c #0048D9",
"/	c #0043CF",
" ",
".",
"+",
"@",
"#",
"$",
"%",
"%",
"&",
"*",
"=",
"-",
"-",
";",
">",
",",
"'",
")",
"!",
"~",
"{",
"]",
"^",
"/"};
