/* XPM */
static char * top_right_inactive_xpm[] = {
"6 29 40 1",
" 	c #688DE1",
".	c #688DE0",
"+	c #98B2E9",
"@	c #98B2E8",
"#	c #7480DC",
"$	c #5B68CD",
"%	c #9BB8EB",
"&	c #9BB7EA",
"*	c #7382D9",
"=	c #6D74CD",
"-	c #4F53BC",
";	c #8AACE8",
">	c #8AACE7",
",	c #7587DD",
"'	c #7EA2E5",
")	c #7586DC",
"!	c #7895DE",
"~	c #768FDB",
"{	c #778FDC",
"]	c #778EDA",
"^	c #778EDB",
"/	c #798FDD",
"(	c #798FDE",
"_	c #7790DD",
":	c #7991DF",
"<	c #7A93DF",
"[	c #7A95E0",
"}	c #7C97E2",
"|	c #7C97E0",
"1	c #7D99E3",
"2	c #7E9DE5",
"3	c #80A0E5",
"4	c #80A4E7",
"5	c #81A6E8",
"6	c #81A8E8",
"7	c #80A5E7",
"8	c #7FA2E6",
"9	c #7D99E4",
"0	c #788FDD",
"a	c #788DDC",
" .....",
"+@@@#$",
"%&&*=-",
";>,*=-",
"'),*=-",
"!),*=-",
"~),*=-",
"{),*=-",
"]),*=-",
"^),*=-",
"/),*=-",
"(),*=-",
"_),*=-",
":),*=-",
"<),*=-",
"[),*=-",
"}),*=-",
"|),*=-",
"1),*=-",
"2),*=-",
"3),*=-",
"4),*=-",
"5),*=-",
"6),*=-",
"7),*=-",
"8),*=-",
"9),*=-",
"0),*=-",
"a),*=-"};
