/* XPM */
static char * top_right_active_xpm[] = {
"6 29 27 1",
" 	c #0059E8",
".	c #0059E9",
"+	c #3D95FF",
"@	c #00138C",
"#	c #2B90FF",
"$	c #001DA0",
"%	c #0271FE",
"&	c #002EBE",
"*	c #0365F1",
"=	c #003EDD",
"-	c #0057E4",
";	c #0048F1",
">	c #0052E2",
",	c #0050E0",
"'	c #0051E1",
")	c #004EDF",
"!	c #004DE1",
"~	c #004CE0",
"{	c #004EE3",
"]	c #004FE2",
"^	c #0050E5",
"/	c #004FE7",
"(	c #003DDC",
"_	c #002DBE",
":	c #0053EB",
"<	c #0055F0",
"[	c #0058F2",
"   .  ",
"+++++@",
"####$@",
"%%%&$@",
"**=&$@",
"-;=&$@",
">;=&$@",
",;=&$@",
">;=&$@",
",;=&$@",
"';=&$@",
");=&$@",
">;=&$@",
",;=&$@",
"';=&$@",
");=&$@",
">;=&$@",
",;=&$@",
"';=&$@",
");=&$@",
"!;=&$@",
"~;=&$@",
"{;=&$@",
"];=&$@",
"^;=&$@",
"/;(_$@",
":;(_$@",
"<;(_$@",
"[;(_$@"};
