/* XPM */
static char * title_active_upper_xpm[] = {
"19 3 4 1",
" 	c #005CEA",
".	c #005CE9",
"+	c #0057E6",
"@	c #0058E6",
"             ......",
"             ......",
"+++@@@@@@@@@@@@@@@@"};
